<svg width="28" height="27" viewBox="0 0 28 27" fill="none" xmlns="http://www.w3.org/2000/svg">
<g clip-path="url(#clip0)">
<path d="M27.0604 13.5087C27.0604 6.17049 21.1116 0.22168 13.7734 0.22168C6.43514 0.22168 0.486328 6.17049 0.486328 13.5087C0.486328 20.1406 5.34519 25.6376 11.6973 26.6344V17.3495H8.32361V13.5087H11.6973V10.5814C11.6973 7.25136 13.681 5.41194 16.716 5.41194C18.1693 5.41194 19.6903 5.67145 19.6903 5.67145V8.94131H18.0149C16.3644 8.94131 15.8495 9.96561 15.8495 11.0174V13.5087H19.5346L18.9455 17.3495H15.8495V26.6344C22.2016 25.6376 27.0604 20.1406 27.0604 13.5087Z" fill="#1877F2"/>
<path d="M18.9456 17.3497L19.5347 13.5089H15.8496V11.0176C15.8496 9.96682 16.3645 8.94148 18.015 8.94148H19.6904V5.67162C19.6904 5.67162 18.1699 5.41211 16.7161 5.41211C13.6811 5.41211 11.6974 7.25154 11.6974 10.5816V13.5089H8.32373V17.3497H11.6974V26.6345C13.0731 26.8498 14.4739 26.8498 15.8496 26.6345V17.3497H18.9456Z" fill="white"/>
</g>
<defs>
<clipPath id="clip0">
<rect width="26.5741" height="26.5741" fill="white" transform="translate(0.486328 0.22168)"/>
</clipPath>
</defs>
</svg>
