<svg width="159" height="30" viewBox="0 0 159 30" fill="none" xmlns="http://www.w3.org/2000/svg">
<g clip-path="url(#clip0)">
<path d="M72.0604 14.5087C72.0604 7.17049 66.1116 1.22168 58.7734 1.22168C51.4351 1.22168 45.4863 7.17049 45.4863 14.5087C45.4863 21.1406 50.3452 26.6376 56.6973 27.6344V18.3495H53.3236V14.5087H56.6973V11.5814C56.6973 8.25136 58.681 6.41194 61.716 6.41194C63.1693 6.41194 64.6903 6.67145 64.6903 6.67145V9.94131H63.0149C61.3644 9.94131 60.8495 10.9656 60.8495 12.0174V14.5087H64.5346L63.9455 18.3495H60.8495V27.6344C67.2016 26.6376 72.0604 21.1406 72.0604 14.5087Z" fill="#1877F2"/>
<path d="M63.9456 18.3497L64.5347 14.5089H60.8496V12.0176C60.8496 10.9668 61.3645 9.94148 63.015 9.94148H64.6904V6.67162C64.6904 6.67162 63.1699 6.41211 61.7161 6.41211C58.6811 6.41211 56.6974 8.25154 56.6974 11.5816V14.5089H53.3237V18.3497H56.6974V27.6345C58.0731 27.8498 59.4739 27.8498 60.8496 27.6345V18.3497H63.9456Z" fill="white"/>
</g>
<g clip-path="url(#clip1)">
<path d="M114.531 8.07061C114.381 7.50526 114.085 6.98929 113.673 6.57433C113.26 6.15937 112.746 5.85998 112.182 5.70612C110.104 5.14746 101.8 5.14746 101.8 5.14746C101.8 5.14746 93.4953 5.14746 91.4177 5.70612C90.8534 5.85998 90.3393 6.15937 89.927 6.57433C89.5147 6.98929 89.2186 7.50526 89.0683 8.07061C88.5127 10.1573 88.5127 14.5088 88.5127 14.5088C88.5127 14.5088 88.5127 18.8603 89.0683 20.947C89.2186 21.5123 89.5147 22.0283 89.927 22.4433C90.3393 22.8582 90.8534 23.1576 91.4177 23.3115C93.4953 23.8701 101.8 23.8701 101.8 23.8701C101.8 23.8701 110.104 23.8701 112.182 23.3115C112.746 23.1576 113.26 22.8582 113.673 22.4433C114.085 22.0283 114.381 21.5123 114.531 20.947C115.087 18.8603 115.087 14.5088 115.087 14.5088C115.087 14.5088 115.087 10.1573 114.531 8.07061Z" fill="#FF0302"/>
<path d="M99.082 18.4599V10.5571L106.028 14.5085L99.082 18.4599Z" fill="#FEFEFE"/>
</g>
<path d="M150.505 10.8144C152.214 12.0403 154.308 12.7616 156.569 12.7616V8.39522C156.141 8.39531 155.714 8.35053 155.295 8.26152V11.6985C153.035 11.6985 150.941 10.9772 149.232 9.75137V18.662C149.232 23.1195 145.631 26.7328 141.19 26.7328C139.533 26.7328 137.992 26.23 136.713 25.3677C138.173 26.8662 140.21 27.7958 142.463 27.7958C146.905 27.7958 150.506 24.1825 150.506 19.7248V10.8144H150.505ZM152.076 6.40923C151.203 5.45171 150.629 4.2143 150.505 2.84628V2.28467H149.299C149.602 4.02341 150.638 5.50889 152.076 6.40923ZM139.522 21.9471C139.034 21.3051 138.77 20.5196 138.772 19.7121C138.772 17.6734 140.419 16.0203 142.45 16.0203C142.829 16.0202 143.206 16.0784 143.566 16.1933V11.7293C143.145 11.6713 142.719 11.6467 142.294 11.6557V15.1303C141.932 15.0154 141.556 14.957 141.177 14.9574C139.145 14.9574 137.498 16.6102 137.498 18.6492C137.498 20.0909 138.322 21.3391 139.522 21.9471Z" fill="#FF004F"/>
<path d="M149.232 9.75128C150.941 10.9771 153.035 11.6984 155.296 11.6984V8.26143C154.034 7.99165 152.916 7.32981 152.076 6.40923C150.638 5.5088 149.603 4.02332 149.299 2.28467H146.129V19.7246C146.122 21.7578 144.478 23.4041 142.45 23.4041C141.256 23.4041 140.194 22.8325 139.522 21.9471C138.322 21.3391 137.498 20.0908 137.498 18.6493C137.498 16.6105 139.145 14.9575 141.177 14.9575C141.566 14.9575 141.942 15.0183 142.294 15.1304V11.6558C137.93 11.7463 134.421 15.3243 134.421 19.7247C134.421 21.9214 135.295 23.9128 136.713 25.3678C137.993 26.23 139.533 26.7329 141.19 26.7329C145.632 26.7329 149.232 23.1194 149.232 18.662V9.75128H149.232Z" fill="black"/>
<path d="M155.295 8.26138V7.33205C154.157 7.33378 153.042 7.01394 152.076 6.40909C152.931 7.34819 154.056 7.99572 155.295 8.26138ZM149.299 2.28463C149.27 2.11846 149.247 1.9512 149.232 1.78329V1.22168H144.856V18.6618C144.849 20.6947 143.205 22.341 141.177 22.341C140.582 22.341 140.02 22.1992 139.522 21.9472C140.194 22.8325 141.255 23.4039 142.45 23.4039C144.478 23.4039 146.122 21.7578 146.129 19.7247V2.28463H149.299ZM142.294 11.6558V10.6664C141.928 10.6163 141.559 10.5911 141.19 10.5913C136.748 10.5912 133.147 14.2047 133.147 18.6618C133.147 21.4562 134.563 23.9189 136.713 25.3676C135.295 23.9126 134.421 21.9212 134.421 19.7246C134.421 15.3243 137.93 11.7463 142.294 11.6558Z" fill="#00F2EA"/>
<path d="M14.6569 29.3138C22.7517 29.3138 29.3138 22.7517 29.3138 14.6569C29.3138 6.56211 22.7517 0 14.6569 0C6.56211 0 0 6.56211 0 14.6569C0 22.7517 6.56211 29.3138 14.6569 29.3138Z" fill="#25D366"/>
<path fill-rule="evenodd" clip-rule="evenodd" d="M15.1398 22.8111H15.1361C13.6775 22.8106 12.2442 22.4447 10.9713 21.7503L6.35107 22.9623L7.58751 18.446C6.82482 17.1243 6.42349 15.625 6.42414 14.0889C6.42606 9.28356 10.3358 5.37402 15.1397 5.37402C17.4712 5.37503 19.6594 6.28267 21.3049 7.93007C22.9504 9.57739 23.8561 11.7671 23.8551 14.0958C23.8532 18.9001 19.945 22.8092 15.1398 22.8111ZM11.1853 20.1725L11.4499 20.3295C12.5621 20.9895 13.837 21.3388 15.1368 21.3393H15.1398C19.1324 21.3393 22.382 18.0896 22.3836 14.0953C22.3844 12.1597 21.6316 10.3397 20.2639 8.97046C18.8963 7.6012 17.0775 6.84677 15.1426 6.8461C11.1469 6.8461 7.89726 10.0954 7.89568 14.0894C7.89511 15.4582 8.27809 16.7912 9.00322 17.9445L9.17546 18.2186L8.44366 20.8917L11.1853 20.1725ZM19.2322 15.9722C19.3841 16.0456 19.4866 16.0952 19.5304 16.1683C19.5848 16.2591 19.5848 16.6951 19.4035 17.2039C19.2219 17.7126 18.3519 18.1768 17.9335 18.2393C17.5583 18.2954 17.0835 18.3188 16.5619 18.153C16.2456 18.0527 15.84 17.9187 15.3204 17.6943C13.2789 16.8128 11.8992 14.8341 11.6385 14.4601C11.6202 14.4339 11.6074 14.4156 11.6003 14.4061L11.5985 14.4037C11.4833 14.2499 10.7111 13.2196 10.7111 12.1533C10.7111 11.1502 11.2038 10.6244 11.4306 10.3824C11.4462 10.3658 11.4605 10.3506 11.4733 10.3366C11.6729 10.1186 11.9088 10.0641 12.054 10.0641C12.1991 10.0641 12.3445 10.0654 12.4714 10.0718C12.487 10.0726 12.5033 10.0725 12.5201 10.0724C12.647 10.0716 12.8052 10.0707 12.9613 10.4456C13.0214 10.5899 13.1092 10.8038 13.2019 11.0294C13.3893 11.4856 13.5963 11.9896 13.6327 12.0626C13.6872 12.1716 13.7235 12.2987 13.6509 12.4441C13.64 12.4659 13.6299 12.4865 13.6203 12.5062C13.5658 12.6175 13.5257 12.6993 13.4331 12.8074C13.3968 12.8499 13.3591 12.8957 13.3215 12.9415C13.2466 13.0327 13.1717 13.1239 13.1065 13.1889C12.9975 13.2975 12.884 13.4153 13.011 13.6333C13.138 13.8514 13.5751 14.5645 14.2225 15.1419C14.9184 15.7626 15.5232 16.025 15.8298 16.158C15.8897 16.184 15.9382 16.205 15.9737 16.2228C16.1914 16.3318 16.3185 16.3136 16.4455 16.1683C16.5725 16.023 16.9899 15.5324 17.135 15.3144C17.2802 15.0965 17.4254 15.1328 17.625 15.2054C17.8246 15.2782 18.8953 15.8049 19.1131 15.9139C19.1556 15.9352 19.1953 15.9544 19.2322 15.9722Z" fill="#FDFDFD"/>
<defs>
<clipPath id="clip0">
<rect width="26.5741" height="26.5741" fill="white" transform="translate(45.4863 1.22168)"/>
</clipPath>
<clipPath id="clip1">
<rect width="26.5741" height="26.5741" fill="white" transform="translate(88.4863 1.22168)"/>
</clipPath>
</defs>
</svg>
