<svg width="28" height="27" viewBox="0 0 28 27" fill="none" xmlns="http://www.w3.org/2000/svg">
<path d="M19.5054 9.81441C21.2143 11.0403 23.3077 11.7616 25.5688 11.7616V7.39522C25.1409 7.39531 24.7141 7.35053 24.2954 7.26152V10.6985C22.0346 10.6985 19.9414 9.97721 18.232 8.75137V17.662C18.232 22.1195 14.6313 25.7328 10.1899 25.7328C8.53272 25.7328 6.99242 25.23 5.71289 24.3677C7.17326 25.8662 9.20986 26.7958 11.463 26.7958C15.9047 26.7958 19.5056 23.1825 19.5056 18.7248V9.81441H19.5054ZM21.0762 5.40923C20.2029 4.45171 19.6295 3.2143 19.5054 1.84628V1.28467H18.2987C18.6025 3.02341 19.6385 4.50889 21.0762 5.40923ZM8.52209 20.9471C8.03415 20.3051 7.77047 19.5196 7.77165 18.7121C7.77165 16.6734 9.41859 15.0203 11.4505 15.0203C11.8291 15.0202 12.2055 15.0784 12.5664 15.1933V10.7293C12.1447 10.6713 11.7191 10.6467 11.2936 10.6557V14.1303C10.9325 14.0154 10.5559 13.957 10.1771 13.9574C8.14524 13.9574 6.49839 15.6102 6.49839 17.6492C6.49839 19.0909 7.32159 20.3391 8.52209 20.9471Z" fill="#FF004F"/>
<path d="M18.2322 8.75128C19.9415 9.97711 22.0347 10.6984 24.2955 10.6984V7.26143C23.0335 6.99165 21.9163 6.32981 21.0763 5.40923C19.6385 4.5088 18.6026 3.02332 18.2988 1.28467H15.1292V18.7246C15.122 20.7578 13.4779 22.4041 11.4504 22.4041C10.2556 22.4041 9.19417 21.8325 8.52193 20.9471C7.32152 20.3391 6.49832 19.0908 6.49832 17.6493C6.49832 15.6105 8.14517 13.9575 10.177 13.9575C10.5663 13.9575 10.9416 14.0183 11.2935 14.1304V10.6558C6.93013 10.7463 3.4209 14.3243 3.4209 18.7247C3.4209 20.9214 4.29478 22.9128 5.71309 24.3678C6.99262 25.23 8.53292 25.7329 10.1901 25.7329C14.6316 25.7329 18.2322 22.1194 18.2322 17.662V8.75128H18.2322Z" fill="black"/>
<path d="M24.2954 7.26138V6.33205C23.1573 6.33378 22.0417 6.01394 21.0762 5.40909C21.9309 6.34819 23.0563 6.99572 24.2954 7.26138ZM18.2986 1.28463C18.2697 1.11846 18.2474 0.951195 18.232 0.783295V0.22168H13.8556V17.6618C13.8486 19.6947 12.2046 21.341 10.1769 21.341C9.58157 21.341 9.01951 21.1992 8.52176 20.9472C9.19399 21.8325 10.2554 22.4039 11.4502 22.4039C13.4776 22.4039 15.1219 20.7578 15.129 18.7247V1.28463H18.2986ZM11.2935 10.6558V9.66644C10.9279 9.61628 10.5592 9.59111 10.19 9.59129C5.74816 9.5912 2.14746 13.2047 2.14746 17.6618C2.14746 20.4562 3.5626 22.9189 5.71301 24.3676C4.29469 22.9126 3.42081 20.9212 3.42081 18.7246C3.42081 14.3243 6.92995 10.7463 11.2935 10.6558Z" fill="#00F2EA"/>
</svg>
