<svg width="30" height="30" viewBox="0 0 30 30" fill="none" xmlns="http://www.w3.org/2000/svg">
<path d="M14.6569 29.3138C22.7517 29.3138 29.3138 22.7517 29.3138 14.6569C29.3138 6.56211 22.7517 0 14.6569 0C6.56211 0 0 6.56211 0 14.6569C0 22.7517 6.56211 29.3138 14.6569 29.3138Z" fill="#25D366"/>
<path fill-rule="evenodd" clip-rule="evenodd" d="M15.1398 22.8111H15.1361C13.6775 22.8106 12.2442 22.4447 10.9713 21.7503L6.35107 22.9623L7.58751 18.446C6.82482 17.1243 6.42349 15.625 6.42414 14.0889C6.42606 9.28356 10.3358 5.37402 15.1397 5.37402C17.4712 5.37503 19.6594 6.28267 21.3049 7.93007C22.9504 9.57739 23.8561 11.7671 23.8551 14.0958C23.8532 18.9001 19.945 22.8092 15.1398 22.8111ZM11.1853 20.1725L11.4499 20.3295C12.5621 20.9895 13.837 21.3388 15.1368 21.3393H15.1398C19.1324 21.3393 22.382 18.0896 22.3836 14.0953C22.3844 12.1597 21.6316 10.3397 20.2639 8.97046C18.8963 7.6012 17.0775 6.84677 15.1426 6.8461C11.1469 6.8461 7.89726 10.0954 7.89568 14.0894C7.89511 15.4582 8.27809 16.7912 9.00322 17.9445L9.17546 18.2186L8.44366 20.8917L11.1853 20.1725ZM19.2322 15.9722C19.3841 16.0456 19.4866 16.0952 19.5304 16.1683C19.5848 16.2591 19.5848 16.6951 19.4035 17.2039C19.2219 17.7126 18.3519 18.1768 17.9335 18.2393C17.5583 18.2954 17.0835 18.3188 16.5619 18.153C16.2456 18.0527 15.84 17.9187 15.3204 17.6943C13.2789 16.8128 11.8992 14.8341 11.6385 14.4601C11.6202 14.4339 11.6074 14.4156 11.6003 14.4061L11.5985 14.4037C11.4833 14.2499 10.7111 13.2196 10.7111 12.1533C10.7111 11.1502 11.2038 10.6244 11.4306 10.3824C11.4462 10.3658 11.4605 10.3506 11.4733 10.3366C11.6729 10.1186 11.9088 10.0641 12.054 10.0641C12.1991 10.0641 12.3445 10.0654 12.4714 10.0718C12.487 10.0726 12.5033 10.0725 12.5201 10.0724C12.647 10.0716 12.8052 10.0707 12.9613 10.4456C13.0214 10.5899 13.1092 10.8038 13.2019 11.0294C13.3893 11.4856 13.5963 11.9896 13.6327 12.0626C13.6872 12.1716 13.7235 12.2987 13.6509 12.4441C13.64 12.4659 13.6299 12.4865 13.6203 12.5062C13.5658 12.6175 13.5257 12.6993 13.4331 12.8074C13.3968 12.8499 13.3591 12.8957 13.3215 12.9415C13.2466 13.0327 13.1717 13.1239 13.1065 13.1889C12.9975 13.2975 12.884 13.4153 13.011 13.6333C13.138 13.8514 13.5751 14.5645 14.2225 15.1419C14.9184 15.7626 15.5232 16.025 15.8298 16.158C15.8897 16.184 15.9382 16.205 15.9737 16.2228C16.1914 16.3318 16.3185 16.3136 16.4455 16.1683C16.5725 16.023 16.9899 15.5324 17.135 15.3144C17.2802 15.0965 17.4254 15.1328 17.625 15.2054C17.8246 15.2782 18.8953 15.8049 19.1131 15.9139C19.1556 15.9352 19.1953 15.9544 19.2322 15.9722Z" fill="#FDFDFD"/>
</svg>
