<svg width="28" height="27" viewBox="0 0 28 27" fill="none" xmlns="http://www.w3.org/2000/svg">
<g clip-path="url(#clip0)">
<path d="M26.5312 7.07061C26.3809 6.50526 26.0848 5.98929 25.6725 5.57433C25.2602 5.15937 24.7461 4.85998 24.1818 4.70612C22.1042 4.14746 13.7998 4.14746 13.7998 4.14746C13.7998 4.14746 5.49534 4.14746 3.41773 4.70612C2.85335 4.85998 2.33929 5.15937 1.92698 5.57433C1.51467 5.98929 1.21858 6.50526 1.06834 7.07061C0.512695 9.15728 0.512695 13.5088 0.512695 13.5088C0.512695 13.5088 0.512695 17.8603 1.06834 19.947C1.21858 20.5123 1.51467 21.0283 1.92698 21.4433C2.33929 21.8582 2.85335 22.1576 3.41773 22.3115C5.49534 22.8701 13.7998 22.8701 13.7998 22.8701C13.7998 22.8701 22.1042 22.8701 24.1818 22.3115C24.7461 22.1576 25.2602 21.8582 25.6725 21.4433C26.0848 21.0283 26.3809 20.5123 26.5312 19.947C27.0868 17.8603 27.0868 13.5088 27.0868 13.5088C27.0868 13.5088 27.0868 9.15728 26.5312 7.07061Z" fill="#FF0302"/>
<path d="M11.082 17.4599V9.55713L18.0275 13.5085L11.082 17.4599Z" fill="#FEFEFE"/>
</g>
<defs>
<clipPath id="clip0">
<rect width="26.5741" height="26.5741" fill="white" transform="translate(0.486328 0.22168)"/>
</clipPath>
</defs>
</svg>
